<svg width="12" height="12" viewBox="0 0 12 12" fill="none" xmlns="http://www.w3.org/2000/svg">
<path d="M10.355 3.51979C10.185 3.68979 10.02 3.85479 10.015 4.01979C10 4.17979 10.17 4.34479 10.33 4.49979C10.57 4.74979 10.805 4.97478 10.795 5.21978C10.785 5.46479 10.53 5.71978 10.275 5.96978L8.21 8.03978L7.5 7.32978L9.625 5.20979L9.145 4.72979L8.435 5.43479L6.56 3.55979L8.48 1.64479C8.675 1.44979 9 1.44979 9.185 1.64479L10.355 2.81479C10.55 2.99979 10.55 3.32479 10.355 3.51979ZM1.5 8.62478L6.28 3.83979L8.155 5.71479L3.375 10.4998H1.5V8.62478Z" fill="#7D7C78"/>
</svg>
