<svg width="12" height="14" viewBox="0 0 12 14" fill="none" xmlns="http://www.w3.org/2000/svg">
<path d="M0.666504 3.66667H11.3332M4.6665 6.33333V10.3333M7.33317 6.33333V10.3333M1.33317 3.66667L1.99984 11.6667C1.99984 12.0203 2.14031 12.3594 2.39036 12.6095C2.64041 12.8595 2.97955 13 3.33317 13H8.6665C9.02013 13 9.35926 12.8595 9.60931 12.6095C9.85936 12.3594 9.99984 12.0203 9.99984 11.6667L10.6665 3.66667M3.99984 3.66667V1.66667C3.99984 1.48986 4.07008 1.32029 4.1951 1.19526C4.32012 1.07024 4.48969 1 4.6665 1H7.33317C7.50998 1 7.67955 1.07024 7.80458 1.19526C7.9296 1.32029 7.99984 1.48986 7.99984 1.66667V3.66667" stroke="#37352F" stroke-width="1.33333" stroke-linecap="round" stroke-linejoin="round"/>
</svg>